<?xml version="1.0" encoding="UTF-8" standalone="no"?>
<svg
   xmlns:dc="http://purl.org/dc/elements/1.1/"
   xmlns:cc="http://creativecommons.org/ns#"
   xmlns:rdf="http://www.w3.org/1999/02/22-rdf-syntax-ns#"
   xmlns:svg="http://www.w3.org/2000/svg"
   xmlns="http://www.w3.org/2000/svg"
   xmlns:sodipodi="http://sodipodi.sourceforge.net/DTD/sodipodi-0.dtd"
   xmlns:inkscape="http://www.inkscape.org/namespaces/inkscape"
   inkscape:version="1.0 (4035a4fb49, 2020-05-01)"
   sodipodi:docname="icon.svg"
   id="svg14"
   version="1.1"
   width="2500"
   viewBox=".4 .3 99.7 100"
   height="2500">
  <metadata
     id="metadata20">
    <rdf:RDF>
      <cc:Work
         rdf:about="">
        <dc:format>image/svg+xml</dc:format>
        <dc:type
           rdf:resource="http://purl.org/dc/dcmitype/StillImage" />
      </cc:Work>
    </rdf:RDF>
  </metadata>
  <defs
     id="defs18" />
  <sodipodi:namedview
     inkscape:current-layer="svg14"
     inkscape:window-maximized="1"
     inkscape:window-y="-8"
     inkscape:window-x="-8"
     inkscape:cy="1585.1927"
     inkscape:cx="1554.5688"
     inkscape:zoom="0.24041631"
     showgrid="false"
     id="namedview16"
     inkscape:window-height="1017"
     inkscape:window-width="1920"
     inkscape:pageshadow="2"
     inkscape:pageopacity="0"
     guidetolerance="10"
     gridtolerance="10"
     objecttolerance="10"
     borderopacity="1"
     bordercolor="#666666"
     pagecolor="#ffffff" />
  <g
     id="g879">
    <rect
       style="fill:#000000;fill-rule:evenodd;stroke-width:0.0426051"
       id="rect864"
       width="16.767096"
       height="92.108131"
       x="41.881603"
       y="4.1920142" />
    <rect
       y="-34.839306"
       x="61.798237"
       height="92.108131"
       width="16.767096"
       id="rect866"
       style="fill:#000000;fill-rule:evenodd;stroke-width:0.0426051"
       transform="rotate(35.910256)" />
    <rect
       transform="rotate(-35.944557)"
       style="fill:#000000;fill-rule:evenodd;stroke-width:0.0426051"
       id="rect868"
       width="16.767096"
       height="92.108131"
       x="2.8158281"
       y="24.130175" />
    <rect
       y="17.225454"
       x="-40.74025"
       height="92.108131"
       width="16.767096"
       id="rect870"
       style="fill:#000000;fill-rule:evenodd;stroke-width:0.0426051"
       transform="rotate(-72.092882)" />
    <rect
       transform="rotate(-107.87728)"
       style="fill:#000000;fill-rule:evenodd;stroke-width:0.0426051"
       id="rect872"
       width="16.767096"
       height="92.108131"
       x="-71.633911"
       y="-13.640412" />
  </g>
  <g
     style="display:inline;opacity:1"
     transform="matrix(0.88519913,0,0,0.88519913,5.7687429,5.7744836)"
     id="g12"
     fill-rule="evenodd"
     fill="none">
    <path
       style="display:inline"
       id="path2"
       fill="#ffffff"
       d="M 57.8,27.2 57.7,0.3 h -15 l 0.1,26.9 7.5,10.3 z m -15,46.1 v 27 h 15 v -27 L 50.3,63 Z" />
    <path
       style="display:inline"
       id="path4"
       fill="#00f2e6"
       d="M 57.8,73.3 73.6,95.1 85.7,86.3 69.9,64.5 57.8,60.6 Z M 42.8,27.2 26.9,5.4 14.8,14.2 30.6,36 42.8,39.9 Z" />
    <path
       style="display:inline"
       id="path6"
       fill="#00b9f1"
       d="M 30.6,36 5,27.7 0.4,41.9 26,50.3 l 12.1,-4 z m 31.8,18.2 7.5,10.3 25.6,8.3 4.6,-14.2 -25.6,-8.3 z" />
    <path
       style="display:inline"
       id="path8"
       fill="#d63aff"
       d="M 74.5,50.3 100.1,41.9 95.5,27.7 69.9,36 62.4,46.3 Z M 26,50.3 0.4,58.6 5,72.8 30.6,64.5 38.1,54.2 Z" />
    <path
       style="display:inline"
       id="path10"
       fill="#fb015b"
       d="M 30.6,64.5 14.8,86.3 26.9,95.1 42.8,73.3 V 60.6 Z M 69.9,36 85.7,14.2 73.6,5.4 57.8,27.2 v 12.7 z" />
  </g>
</svg>
