<?xml version="1.0" encoding="UTF-8" standalone="no"?>
<svg
   xmlns:dc="http://purl.org/dc/elements/1.1/"
   xmlns:cc="http://creativecommons.org/ns#"
   xmlns:rdf="http://www.w3.org/1999/02/22-rdf-syntax-ns#"
   xmlns:svg="http://www.w3.org/2000/svg"
   xmlns="http://www.w3.org/2000/svg"
   xmlns:sodipodi="http://sodipodi.sourceforge.net/DTD/sodipodi-0.dtd"
   xmlns:inkscape="http://www.inkscape.org/namespaces/inkscape"
   inkscape:export-ydpi="96"
   inkscape:export-xdpi="96"
   inkscape:export-filename="P:\Annon Website\october plugins\restapi\icon.png"
   width="165"
   height="165"
   version="1.1"
   id="svg18"
   sodipodi:docname="icon.svg"
   inkscape:version="1.0 (4035a4fb49, 2020-05-01)">
  <metadata
     id="metadata24">
    <rdf:RDF>
      <cc:Work
         rdf:about="">
        <dc:format>image/svg+xml</dc:format>
        <dc:type
           rdf:resource="http://purl.org/dc/dcmitype/StillImage" />
        <dc:title></dc:title>
      </cc:Work>
    </rdf:RDF>
  </metadata>
  <defs
     id="defs22">
    <rect
       x="-0.38823529"
       y="6.2117647"
       width="45.811765"
       height="159.17647"
       id="rect851" />
    <rect
       id="rect859"
       height="159.17647"
       width="45.811765"
       y="6.2117647"
       x="-0.38823529" />
    <rect
       x="-0.38823529"
       y="6.2117647"
       width="45.811765"
       height="159.17647"
       id="rect865" />
    <rect
       id="rect876"
       height="159.17647"
       width="45.811765"
       y="6.2117647"
       x="-0.38823529" />
  </defs>
  <sodipodi:namedview
     inkscape:document-rotation="0"
     pagecolor="#ffffff"
     bordercolor="#666666"
     borderopacity="1"
     objecttolerance="10"
     gridtolerance="10"
     guidetolerance="10"
     inkscape:pageopacity="0"
     inkscape:pageshadow="2"
     inkscape:window-width="1920"
     inkscape:window-height="1017"
     id="namedview20"
     showgrid="false"
     inkscape:zoom="2.5757576"
     inkscape:cx="144.64564"
     inkscape:cy="83.696288"
     inkscape:window-x="-8"
     inkscape:window-y="-8"
     inkscape:window-maximized="1"
     inkscape:current-layer="svg18" />
  <g
     fill="none"
     fill-rule="evenodd"
     id="g16"
     transform="matrix(0.67974185,0,0,0.67974185,26.4665,26.376095)">
    <g
       id="g870"
       style="fill:#00aad4">
      <path
         id="path2"
         fill="#44b1c8"
         d="M 141.462,103.726 H 23.403 v -42.32 h 118.06 v 42.32 z"
         style="fill:#00aad4" />
      <path
         id="path8"
         fill="#44b1c8"
         d="m 24.868,77.88 c 0.456,-5.767 1.821,-11.29 3.881,-16.474 H 2.02 A 82.526,82.526 0 0 0 0,71.72 l 11.394,5.934 a 72.17,72.17 0 0 0 -0.186,4.912 c 0,1.655 0.075,3.29 0.186,4.914 L 0,93.414 a 82.705,82.705 0 0 0 2.017,10.314 h 26.68 C 25.579,95.813 24.143,87.053 24.867,77.88"
         style="fill:#00aad4" />
      <path
         id="path12"
         fill="#44b1c8"
         d="m 140,87.252 c -0.456,5.768 -1.822,11.29 -3.884,16.475 h 26.734 a 82.527,82.527 0 0 0 2.017,-10.315 l -11.396,-5.933 c 0.113,-1.625 0.188,-3.26 0.188,-4.912 0,-1.655 -0.075,-3.29 -0.188,-4.915 l 11.396,-5.933 A 82.577,82.577 0 0 0 162.85,61.407 h -26.681 c 3.119,7.912 4.555,16.673 3.83,25.845"
         style="fill:#00aad4" />
    </g>
    <text
       font-family="Helvetica"
       font-size="26px"
       font-weight="bold"
       fill="#ffffff"
       id="text6"><tspan
         x="49.268002"
         y="92.334"
         id="tspan4">REST</tspan></text>
    <path
       d="m 134.103,108.228 c -8.838,17.646 -26.464,30.285 -46.983,31.905 -24.633,1.941 -46.329,-11.59 -56.425,-31.905 h -14.66 c 0.797,2.067 1.655,4.107 2.635,6.077 l -8.25,9.834 a 83.21,83.21 0 0 0 6.052,9.047 l 12.257,-3.863 a 71.637,71.637 0 0 0 6.949,6.949 l -3.866,12.254 a 83.143,83.143 0 0 0 9.05,6.054 l 9.834,-8.252 a 70.578,70.578 0 0 0 9.095,3.767 L 60.91,162.9 a 83.044,83.044 0 0 0 10.677,2.1 l 5.933,-11.396 c 1.625,0.11 3.26,0.188 4.915,0.188 1.652,0 3.287,-0.077 4.912,-0.188 L 93.28,165 a 83.044,83.044 0 0 0 10.677,-2.1 l 1.122,-12.805 a 70.875,70.875 0 0 0 9.094,-3.767 l 9.832,8.252 a 82.9,82.9 0 0 0 9.05,-6.054 l -3.864,-12.254 a 71.895,71.895 0 0 0 6.947,-6.95 l 12.256,3.864 a 83.21,83.21 0 0 0 6.052,-9.047 l -8.25,-9.834 c 0.981,-1.97 1.839,-4.01 2.636,-6.077 z"
       fill="#008ba6"
       id="path10"
       style="fill:#006680" />
    <path
       d="m 77.748,25 c 24.633,-1.941 46.329,11.59 56.425,31.905 h 14.66 c -0.797,-2.07 -1.655,-4.107 -2.638,-6.076 l 8.252,-9.835 a 83.488,83.488 0 0 0 -6.051,-9.049 l -12.26,3.866 a 71.33,71.33 0 0 0 -6.946,-6.95 l 3.866,-12.256 a 83.488,83.488 0 0 0 -9.05,-6.051 l -9.834,8.25 a 71.074,71.074 0 0 0 -9.095,-3.766 L 103.958,2.233 a 82.7,82.7 0 0 0 -10.677,-2.1 l -5.933,11.394 a 72.182,72.182 0 0 0 -4.915,-0.186 72.17,72.17 0 0 0 -4.912,0.186 L 71.588,0.133 a 82.617,82.617 0 0 0 -10.677,2.1 L 59.79,15.038 a 71.074,71.074 0 0 0 -9.094,3.765 l -9.832,-8.25 a 83,83 0 0 0 -9.05,6.052 l 3.864,12.256 a 71.33,71.33 0 0 0 -6.947,6.95 L 16.474,31.945 a 83.488,83.488 0 0 0 -6.051,9.05 l 8.25,9.834 c -0.984,1.97 -1.839,4.006 -2.639,6.076 H 30.766 C 39.604,39.259 57.23,26.618 77.749,25.001"
       fill="#008ba6"
       id="path14"
       style="fill:#006680" />
  </g>
  <text
     xml:space="preserve"
     id="text863"
     style="font-style:normal;font-weight:normal;font-size:40px;line-height:1.25;font-family:sans-serif;white-space:pre;shape-inside:url(#rect865);fill:#0088aa;fill-opacity:1;stroke:none;"
     transform="matrix(0.74240564,0,0,1.1287532,0.84275924,-19.383865)"><tspan
       x="-0.38867188"
       y="126.31122"><tspan
         style="font-style:normal;font-variant:normal;font-weight:normal;font-stretch:normal;font-size:133.333px;font-family:'Segoe UI Emoji';-inkscape-font-specification:'Segoe UI Emoji';fill:#0088aa">{</tspan></tspan></text>
  <text
     transform="matrix(-0.74240564,0,0,1.1287532,165.53748,-19.383865)"
     style="font-style:normal;font-weight:normal;font-size:40px;line-height:1.25;font-family:sans-serif;white-space:pre;shape-inside:url(#rect876);fill:#0088aa;fill-opacity:1;stroke:none;"
     id="text874"
     xml:space="preserve"><tspan
       x="-0.38867188"
       y="126.31122"><tspan
         style="font-style:normal;font-variant:normal;font-weight:normal;font-stretch:normal;font-size:133.333px;font-family:'Segoe UI Emoji';-inkscape-font-specification:'Segoe UI Emoji';fill:#0088aa">{</tspan></tspan></text>
</svg>
